<?xml version="1.0" encoding="UTF-8"?>
<svg xmlns="http://www.w3.org/2000/svg" xmlns:xlink="http://www.w3.org/1999/xlink" width="125pt" height="125pt" viewBox="0 0 125 125" version="1.1">
<g id="surface1">
<path style=" stroke:none;fill-rule:nonzero;fill:rgb(84.313725%,87.843137%,34.117647%);fill-opacity:1;" d="M 30.742188 91.3125 C 30.265625 96.960938 24.382812 97.851562 24.382812 97.851562 C 29.433594 98.089844 30.695312 104.71875 30.695312 104.71875 C 30.800781 99.992188 37.199219 97.78125 37.199219 97.78125 C 32.40625 97.496094 30.742188 91.3125 30.742188 91.3125 Z M 30.742188 91.3125 "/>
<path style=" stroke:none;fill-rule:nonzero;fill:rgb(22.745098%,19.215686%,16.470588%);fill-opacity:1;" d="M 37.242188 97.050781 C 33.039062 96.800781 31.464844 91.179688 31.449219 91.125 C 31.355469 90.78125 31.027344 90.554688 30.675781 90.585938 C 30.320312 90.617188 30.042969 90.898438 30.011719 91.253906 C 29.59375 96.242188 24.488281 97.09375 24.273438 97.128906 C 23.898438 97.183594 23.632812 97.515625 23.652344 97.890625 C 23.671875 98.265625 23.972656 98.566406 24.347656 98.582031 C 28.757812 98.792969 29.960938 104.792969 29.972656 104.855469 C 30.042969 105.203125 30.34375 105.449219 30.691406 105.449219 C 30.714844 105.449219 30.734375 105.449219 30.753906 105.445312 C 31.128906 105.414062 31.417969 105.109375 31.425781 104.734375 C 31.519531 100.578125 37.378906 98.496094 37.4375 98.476562 C 37.769531 98.359375 37.972656 98.027344 37.921875 97.683594 C 37.875 97.335938 37.589844 97.074219 37.242188 97.050781 Z M 30.617188 102.101562 C 29.953125 100.574219 28.804688 98.730469 26.914062 97.769531 C 28.34375 97.082031 30.042969 95.859375 30.917969 93.730469 C 31.675781 95.226562 32.96875 97.089844 34.988281 97.988281 C 33.519531 98.789062 31.605469 100.140625 30.617188 102.101562 Z M 30.617188 102.101562 "/>
<path style=" stroke:none;fill-rule:nonzero;fill:rgb(84.313725%,87.843137%,34.117647%);fill-opacity:1;" d="M 20.148438 99.605469 C 19.808594 103.597656 15.648438 104.230469 15.648438 104.230469 C 19.222656 104.398438 20.113281 109.085938 20.113281 109.085938 C 20.1875 105.742188 24.710938 104.179688 24.710938 104.179688 C 21.324219 103.976562 20.144531 99.605469 20.144531 99.605469 Z M 20.148438 99.605469 "/>
<path style=" stroke:none;fill-rule:nonzero;fill:rgb(22.745098%,19.215686%,16.470588%);fill-opacity:1;" d="M 24.757812 103.449219 C 21.941406 103.28125 20.863281 99.453125 20.855469 99.414062 C 20.761719 99.070312 20.4375 98.84375 20.082031 98.875 C 19.726562 98.90625 19.445312 99.191406 19.417969 99.542969 C 19.132812 102.898438 15.683594 103.480469 15.539062 103.503906 C 15.167969 103.5625 14.898438 103.890625 14.917969 104.265625 C 14.9375 104.644531 15.238281 104.945312 15.613281 104.960938 C 18.5625 105.101562 19.386719 109.183594 19.394531 109.222656 C 19.460938 109.570312 19.765625 109.816406 20.113281 109.816406 C 20.132812 109.816406 20.152344 109.816406 20.171875 109.816406 C 20.546875 109.785156 20.835938 109.476562 20.84375 109.101562 C 20.910156 106.3125 24.914062 104.886719 24.953125 104.875 C 25.28125 104.757812 25.488281 104.425781 25.4375 104.082031 C 25.390625 103.734375 25.105469 103.46875 24.757812 103.449219 Z M 20.078125 106.765625 C 19.625 105.847656 18.933594 104.839844 17.90625 104.191406 C 18.8125 103.679688 19.710938 102.90625 20.285156 101.789062 C 20.800781 102.703125 21.578125 103.71875 22.695312 104.339844 C 21.792969 104.875 20.75 105.679688 20.078125 106.765625 Z M 20.078125 106.765625 "/>
<path style=" stroke:none;fill-rule:nonzero;fill:rgb(84.313725%,87.843137%,34.117647%);fill-opacity:1;" d="M 20.148438 86.589844 C 19.808594 90.582031 15.648438 91.214844 15.648438 91.214844 C 19.222656 91.382812 20.113281 96.070312 20.113281 96.070312 C 20.1875 92.726562 24.710938 91.164062 24.710938 91.164062 C 21.324219 90.960938 20.144531 86.589844 20.144531 86.589844 Z M 20.148438 86.589844 "/>
<path style=" stroke:none;fill-rule:nonzero;fill:rgb(22.745098%,19.215686%,16.470588%);fill-opacity:1;" d="M 24.757812 90.433594 C 21.941406 90.265625 20.863281 86.4375 20.851562 86.398438 C 20.761719 86.054688 20.4375 85.824219 20.082031 85.859375 C 19.726562 85.890625 19.445312 86.171875 19.417969 86.527344 C 19.132812 89.882812 15.683594 90.464844 15.539062 90.488281 C 15.164062 90.546875 14.898438 90.875 14.917969 91.25 C 14.9375 91.628906 15.238281 91.925781 15.613281 91.945312 C 18.5625 92.082031 19.382812 96.164062 19.390625 96.207031 C 19.457031 96.554688 19.761719 96.800781 20.113281 96.800781 C 20.132812 96.800781 20.152344 96.800781 20.171875 96.800781 C 20.546875 96.769531 20.835938 96.460938 20.84375 96.085938 C 20.90625 93.296875 24.910156 91.871094 24.953125 91.855469 C 25.28125 91.742188 25.484375 91.410156 25.4375 91.0625 C 25.390625 90.71875 25.105469 90.453125 24.757812 90.433594 Z M 20.078125 93.75 C 19.625 92.828125 18.933594 91.824219 17.90625 91.171875 C 18.8125 90.664062 19.710938 89.890625 20.285156 88.773438 C 20.800781 89.6875 21.578125 90.703125 22.695312 91.324219 C 21.792969 91.859375 20.75 92.660156 20.078125 93.75 Z M 20.078125 93.75 "/>
<path style=" stroke:none;fill-rule:nonzero;fill:rgb(54.117647%,77.254902%,86.27451%);fill-opacity:1;" d="M 76.488281 21.316406 L 30.796875 8.265625 C 26.722656 7.105469 22.480469 9.460938 21.316406 13.535156 L 17.890625 25.527344 L 15.96875 32.261719 L 8.265625 59.226562 C 7.105469 63.300781 9.460938 67.542969 13.535156 68.707031 L 59.226562 81.753906 C 63.300781 82.917969 67.542969 80.558594 68.707031 76.488281 L 81.753906 30.796875 C 82.917969 26.722656 80.558594 22.480469 76.488281 21.316406 Z M 76.488281 21.316406 "/>
<path style=" stroke:none;fill-rule:nonzero;fill:rgb(22.745098%,19.215686%,16.470588%);fill-opacity:1;" d="M 81.726562 24.609375 C 80.636719 22.648438 78.847656 21.226562 76.6875 20.613281 L 30.996094 7.5625 C 28.839844 6.949219 26.570312 7.207031 24.609375 8.296875 C 22.648438 9.386719 21.230469 11.175781 20.613281 13.335938 L 17.1875 25.328125 C 17.078125 25.71875 17.300781 26.121094 17.691406 26.234375 C 18.078125 26.34375 18.484375 26.121094 18.597656 25.730469 L 22.023438 13.734375 C 22.53125 11.953125 23.703125 10.476562 25.320312 9.578125 C 26.941406 8.679688 28.8125 8.464844 30.59375 8.972656 L 76.289062 22.019531 C 78.070312 22.53125 79.546875 23.703125 80.445312 25.320312 C 81.34375 26.941406 81.558594 28.8125 81.050781 30.59375 L 68 76.289062 C 67.492188 78.070312 66.320312 79.546875 64.703125 80.445312 C 63.082031 81.34375 61.210938 81.5625 59.429688 81.050781 L 13.734375 68.003906 C 10.058594 66.953125 7.921875 63.105469 8.972656 59.429688 L 16.671875 32.464844 C 16.785156 32.074219 16.558594 31.667969 16.167969 31.558594 C 15.78125 31.449219 15.375 31.671875 15.265625 32.0625 L 7.5625 59.027344 C 6.292969 63.480469 8.878906 68.140625 13.332031 69.410156 L 59.027344 82.460938 C 59.792969 82.679688 60.570312 82.789062 61.347656 82.789062 C 62.753906 82.789062 64.148438 82.429688 65.414062 81.726562 C 67.375 80.636719 68.792969 78.847656 69.410156 76.691406 L 82.460938 30.996094 C 83.074219 28.839844 82.816406 26.570312 81.726562 24.609375 Z M 81.726562 24.609375 "/>
<path style=" stroke:none;fill-rule:nonzero;fill:rgb(98.039216%,90.196078%,79.215686%);fill-opacity:1;" d="M 36.363281 19.445312 C 32.714844 18.402344 28.910156 20.515625 27.867188 24.164062 C 26.824219 27.816406 28.9375 31.617188 32.589844 32.660156 C 36.238281 33.703125 40.042969 31.589844 41.082031 27.941406 C 42.125 24.292969 40.011719 20.488281 36.363281 19.445312 Z M 36.363281 19.445312 "/>
<path style=" stroke:none;fill-rule:nonzero;fill:rgb(22.745098%,19.215686%,16.470588%);fill-opacity:1;" d="M 41.125 22.359375 C 40.136719 20.582031 38.519531 19.296875 36.566406 18.742188 C 34.609375 18.183594 32.558594 18.417969 30.78125 19.40625 C 29.007812 20.390625 27.722656 22.011719 27.164062 23.964844 C 26.605469 25.917969 26.84375 27.972656 27.828125 29.746094 C 28.816406 31.523438 30.433594 32.808594 32.386719 33.367188 C 33.082031 33.5625 33.785156 33.660156 34.488281 33.660156 C 35.761719 33.660156 37.023438 33.335938 38.171875 32.699219 C 39.945312 31.714844 41.230469 30.09375 41.789062 28.140625 C 42.347656 26.1875 42.109375 24.136719 41.125 22.359375 Z M 40.378906 27.738281 C 39.929688 29.316406 38.890625 30.625 37.457031 31.421875 C 36.023438 32.214844 34.367188 32.40625 32.789062 31.957031 C 31.214844 31.507812 29.90625 30.46875 29.109375 29.035156 C 28.3125 27.601562 28.121094 25.945312 28.570312 24.367188 C 29.023438 22.789062 30.058594 21.484375 31.492188 20.6875 C 32.417969 20.171875 33.4375 19.910156 34.46875 19.910156 C 35.03125 19.910156 35.601562 19.992188 36.160156 20.148438 C 37.738281 20.601562 39.046875 21.636719 39.84375 23.070312 C 40.640625 24.503906 40.832031 26.164062 40.378906 27.738281 Z M 40.378906 27.738281 "/>
<path style=" stroke:none;fill-rule:nonzero;fill:rgb(98.039216%,90.196078%,79.215686%);fill-opacity:1;" d="M 62.386719 63.554688 C 62.171875 59.765625 58.925781 56.871094 55.136719 57.085938 C 51.347656 57.300781 48.453125 60.546875 48.671875 64.335938 C 48.886719 68.125 52.132812 71.019531 55.921875 70.804688 C 59.707031 70.585938 62.601562 67.339844 62.386719 63.554688 Z M 62.386719 63.554688 "/>
<path style=" stroke:none;fill-rule:nonzero;fill:rgb(22.745098%,19.215686%,16.470588%);fill-opacity:1;" d="M 62.195312 60.277344 C 61.207031 58.5 59.589844 57.214844 57.636719 56.660156 C 53.601562 55.507812 49.386719 57.851562 48.234375 61.882812 C 47.085938 65.914062 49.425781 70.132812 53.460938 71.28125 C 54.15625 71.480469 54.855469 71.574219 55.542969 71.574219 C 58.855469 71.574219 61.90625 69.394531 62.859375 66.058594 C 63.417969 64.105469 63.179688 62.050781 62.195312 60.277344 Z M 61.449219 65.65625 C 60.523438 68.910156 57.117188 70.804688 53.863281 69.875 C 50.605469 68.945312 48.714844 65.539062 49.644531 62.285156 C 50.414062 59.589844 52.878906 57.828125 55.550781 57.828125 C 56.105469 57.828125 56.671875 57.90625 57.234375 58.066406 C 58.808594 58.519531 60.117188 59.554688 60.914062 60.988281 C 61.710938 62.421875 61.902344 64.078125 61.449219 65.65625 Z M 61.449219 65.65625 "/>
<path style=" stroke:none;fill-rule:nonzero;fill:rgb(98.039216%,90.196078%,79.215686%);fill-opacity:1;" d="M 68.28125 29.128906 C 65.324219 26.75 61 27.21875 58.617188 30.175781 C 56.238281 33.132812 56.707031 37.457031 59.664062 39.835938 C 62.621094 42.214844 66.945312 41.75 69.324219 38.792969 C 71.707031 35.835938 71.238281 31.511719 68.28125 29.128906 Z M 68.28125 29.128906 "/>
<path style=" stroke:none;fill-rule:nonzero;fill:rgb(22.745098%,19.215686%,16.470588%);fill-opacity:1;" d="M 66.058594 27.164062 C 64.105469 26.605469 62.050781 26.84375 60.277344 27.828125 C 58.5 28.816406 57.214844 30.433594 56.660156 32.386719 C 55.507812 36.421875 57.851562 40.636719 61.882812 41.789062 C 62.578125 41.988281 63.277344 42.082031 63.96875 42.082031 C 67.277344 42.082031 70.328125 39.902344 71.28125 36.566406 C 72.433594 32.53125 70.089844 28.316406 66.058594 27.164062 Z M 69.875 36.164062 C 68.945312 39.417969 65.539062 41.3125 62.285156 40.378906 C 59.027344 39.449219 57.136719 36.046875 58.066406 32.789062 C 58.515625 31.214844 59.554688 29.90625 60.988281 29.109375 C 62.421875 28.3125 64.078125 28.121094 65.65625 28.574219 C 68.910156 29.503906 70.804688 32.90625 69.875 36.164062 Z M 69.875 36.164062 "/>
<path style=" stroke:none;fill-rule:nonzero;fill:rgb(98.039216%,90.196078%,79.215686%);fill-opacity:1;" d="M 28.234375 49.03125 C 24.636719 47.824219 20.738281 49.761719 19.53125 53.359375 C 18.328125 56.957031 20.265625 60.851562 23.863281 62.058594 C 27.460938 63.265625 31.355469 61.328125 32.5625 57.730469 C 33.769531 54.132812 31.832031 50.238281 28.234375 49.03125 Z M 28.234375 49.03125 "/>
<path style=" stroke:none;fill-rule:nonzero;fill:rgb(22.745098%,19.215686%,16.470588%);fill-opacity:1;" d="M 28.140625 48.234375 C 24.109375 47.085938 19.890625 49.425781 18.742188 53.457031 C 17.589844 57.492188 19.933594 61.707031 23.964844 62.859375 C 24.660156 63.058594 25.359375 63.152344 26.050781 63.152344 C 29.359375 63.152344 32.414062 60.972656 33.367188 57.636719 C 34.515625 53.601562 32.171875 49.386719 28.140625 48.234375 Z M 31.957031 57.234375 C 31.027344 60.488281 27.621094 62.378906 24.367188 61.453125 C 21.113281 60.523438 19.21875 57.117188 20.148438 53.859375 C 20.917969 51.167969 23.382812 49.40625 26.054688 49.40625 C 26.613281 49.40625 27.179688 49.484375 27.738281 49.644531 C 30.996094 50.574219 32.886719 53.976562 31.957031 57.234375 Z M 31.957031 57.234375 "/>
<path style=" stroke:none;fill-rule:nonzero;fill:rgb(94.509804%,42.352941%,47.843137%);fill-opacity:1;" d="M 116.789062 95.710938 L 105.039062 49.667969 C 103.992188 45.566406 99.816406 43.085938 95.710938 44.132812 L 67.136719 51.429688 L 60.589844 53.097656 L 49.667969 55.886719 C 45.566406 56.933594 43.085938 61.109375 44.132812 65.210938 L 55.886719 111.253906 C 56.933594 115.359375 61.109375 117.835938 65.210938 116.789062 L 111.253906 105.039062 C 115.359375 103.992188 117.835938 99.816406 116.789062 95.710938 Z M 116.789062 95.710938 "/>
<path style=" stroke:none;fill-rule:nonzero;fill:rgb(22.745098%,19.215686%,16.470588%);fill-opacity:1;" d="M 117.5 95.53125 L 105.75 49.488281 C 105.195312 47.3125 103.824219 45.484375 101.894531 44.339844 C 99.964844 43.195312 97.707031 42.871094 95.53125 43.425781 L 66.953125 50.71875 C 66.5625 50.820312 66.328125 51.21875 66.425781 51.609375 C 66.527344 52 66.921875 52.238281 67.316406 52.136719 L 95.894531 44.84375 C 97.6875 44.386719 99.554688 44.65625 101.148438 45.601562 C 102.742188 46.546875 103.871094 48.054688 104.328125 49.851562 L 116.078125 95.894531 C 116.539062 97.6875 116.269531 99.554688 115.324219 101.148438 C 114.378906 102.742188 112.871094 103.871094 111.074219 104.328125 L 65.03125 116.078125 C 61.328125 117.023438 57.542969 114.78125 56.597656 111.074219 L 44.84375 65.03125 C 44.386719 63.234375 44.65625 61.371094 45.601562 59.777344 C 46.546875 58.183594 48.054688 57.054688 49.851562 56.59375 L 60.773438 53.808594 C 61.164062 53.707031 61.402344 53.308594 61.300781 52.917969 C 61.203125 52.523438 60.804688 52.285156 60.410156 52.386719 L 49.488281 55.175781 C 47.3125 55.730469 45.488281 57.097656 44.339844 59.027344 C 43.195312 60.957031 42.871094 63.21875 43.425781 65.390625 L 55.175781 111.4375 C 56.144531 115.230469 59.570312 117.757812 63.316406 117.757812 C 64.003906 117.757812 64.699219 117.675781 65.394531 117.496094 L 111.4375 105.746094 C 113.613281 105.191406 115.4375 103.824219 116.585938 101.894531 C 117.726562 99.964844 118.054688 97.707031 117.5 95.53125 Z M 117.5 95.53125 "/>
<path style=" stroke:none;fill-rule:nonzero;fill:rgb(98.039216%,90.196078%,79.215686%);fill-opacity:1;" d="M 68.46875 67.695312 C 67.53125 64.015625 63.789062 61.796875 60.109375 62.734375 C 56.433594 63.671875 54.210938 67.414062 55.152344 71.09375 C 56.089844 74.769531 59.832031 76.992188 63.507812 76.054688 C 67.1875 75.113281 69.40625 71.371094 68.46875 67.695312 Z M 68.46875 67.695312 "/>
<path style=" stroke:none;fill-rule:nonzero;fill:rgb(22.745098%,19.215686%,16.470588%);fill-opacity:1;" d="M 69.179688 67.515625 C 68.140625 63.453125 63.992188 60.988281 59.929688 62.027344 C 57.960938 62.527344 56.304688 63.765625 55.269531 65.515625 C 54.234375 67.261719 53.9375 69.308594 54.441406 71.273438 C 55.316406 74.710938 58.417969 77 61.8125 77 C 62.429688 77 63.0625 76.921875 63.691406 76.765625 C 67.753906 75.726562 70.214844 71.578125 69.179688 67.515625 Z M 63.328125 75.34375 C 60.046875 76.179688 56.695312 74.195312 55.859375 70.914062 C 55.453125 69.324219 55.691406 67.671875 56.527344 66.261719 C 57.367188 64.851562 58.703125 63.851562 60.292969 63.445312 C 60.796875 63.316406 61.308594 63.253906 61.808594 63.253906 C 64.546875 63.253906 67.050781 65.101562 67.757812 67.875 C 68.59375 71.15625 66.605469 74.507812 63.328125 75.34375 Z M 63.328125 75.34375 "/>
<path style=" stroke:none;fill-rule:nonzero;fill:rgb(98.039216%,90.196078%,79.215686%);fill-opacity:1;" d="M 83.710938 74.347656 C 80.359375 72.5625 76.199219 73.832031 74.414062 77.183594 C 72.628906 80.535156 73.902344 84.699219 77.253906 86.480469 C 80.605469 88.265625 84.765625 86.996094 86.550781 83.644531 C 88.335938 80.292969 87.0625 76.128906 83.710938 74.347656 Z M 83.710938 74.347656 "/>
<path style=" stroke:none;fill-rule:nonzero;fill:rgb(22.745098%,19.215686%,16.470588%);fill-opacity:1;" d="M 87.832031 78.582031 C 86.792969 74.519531 82.644531 72.058594 78.582031 73.09375 C 74.519531 74.132812 72.058594 78.28125 73.09375 82.34375 C 73.96875 85.777344 77.070312 88.066406 80.464844 88.066406 C 81.085938 88.066406 81.714844 87.992188 82.34375 87.832031 C 86.40625 86.792969 88.867188 82.644531 87.832031 78.582031 Z M 81.980469 86.410156 C 78.699219 87.25 75.351562 85.261719 74.511719 81.980469 C 73.675781 78.699219 75.664062 75.351562 78.945312 74.511719 C 79.453125 74.382812 79.960938 74.320312 80.460938 74.320312 C 83.199219 74.320312 85.703125 76.171875 86.410156 78.945312 C 87.25 82.222656 85.261719 85.574219 81.980469 86.410156 Z M 81.980469 86.410156 "/>
<path style=" stroke:none;fill-rule:nonzero;fill:rgb(98.039216%,90.196078%,79.215686%);fill-opacity:1;" d="M 105.773438 89.832031 C 104.835938 86.152344 101.09375 83.933594 97.414062 84.871094 C 93.738281 85.808594 91.515625 89.550781 92.457031 93.230469 C 93.394531 96.90625 97.136719 99.125 100.8125 98.1875 C 104.492188 97.25 106.710938 93.507812 105.773438 89.832031 Z M 105.773438 89.832031 "/>
<path style=" stroke:none;fill-rule:nonzero;fill:rgb(22.745098%,19.215686%,16.470588%);fill-opacity:1;" d="M 106.484375 89.648438 C 105.980469 87.679688 104.742188 86.027344 102.996094 84.992188 C 101.25 83.953125 99.203125 83.660156 97.234375 84.164062 C 95.265625 84.664062 93.609375 85.902344 92.574219 87.648438 C 91.539062 89.398438 91.242188 91.445312 91.746094 93.410156 C 92.25 95.378906 93.488281 97.035156 95.234375 98.070312 C 96.425781 98.777344 97.753906 99.140625 99.101562 99.136719 C 99.730469 99.136719 100.367188 99.058594 100.996094 98.898438 C 102.964844 98.398438 104.617188 97.160156 105.65625 95.410156 C 106.691406 93.664062 106.984375 91.617188 106.484375 89.648438 Z M 104.394531 94.664062 C 103.558594 96.074219 102.222656 97.074219 100.632812 97.480469 C 99.046875 97.882812 97.390625 97.648438 95.980469 96.808594 C 94.570312 95.972656 93.570312 94.636719 93.164062 93.046875 C 92.761719 91.460938 92.996094 89.808594 93.835938 88.398438 C 94.671875 86.988281 96.007812 85.988281 97.597656 85.582031 C 98.101562 85.453125 98.617188 85.386719 99.125 85.386719 C 100.214844 85.386719 101.285156 85.679688 102.246094 86.25 C 103.65625 87.085938 104.65625 88.421875 105.0625 90.011719 C 105.46875 91.601562 105.230469 93.253906 104.394531 94.664062 Z M 104.394531 94.664062 "/>
<path style=" stroke:none;fill-rule:nonzero;fill:rgb(82.352941%,30.588235%,36.078431%);fill-opacity:1;" d="M 116.082031 95.894531 L 104.328125 49.851562 C 103.867188 48.054688 102.742188 46.546875 101.148438 45.601562 C 100.0625 44.957031 98.851562 44.625 97.617188 44.625 C 97.042969 44.625 96.46875 44.699219 95.894531 44.847656 L 93.539062 45.445312 C 93.632812 45.496094 93.734375 45.546875 93.824219 45.601562 C 95.417969 46.546875 96.546875 48.054688 97.003906 49.851562 L 108.757812 95.894531 C 109.210938 97.6875 108.941406 99.554688 108 101.148438 C 107.050781 102.742188 105.542969 103.867188 103.75 104.328125 L 60.066406 115.480469 C 61.535156 116.265625 63.292969 116.523438 65.03125 116.082031 L 111.074219 104.328125 C 112.867188 103.867188 114.375 102.742188 115.324219 101.148438 C 116.265625 99.554688 116.535156 97.6875 116.082031 95.894531 Z M 116.082031 95.894531 "/>
</g>
</svg>
